<?xml version="1.0" encoding="UTF-8" standalone="no"?>
<!-- Created with Inkscape (http://www.inkscape.org/) -->

<svg
   xmlns:dc="http://purl.org/dc/elements/1.1/"
   xmlns:cc="http://creativecommons.org/ns#"
   xmlns:rdf="http://www.w3.org/1999/02/22-rdf-syntax-ns#"
   xmlns:svg="http://www.w3.org/2000/svg"
   xmlns="http://www.w3.org/2000/svg"
   xmlns:sodipodi="http://sodipodi.sourceforge.net/DTD/sodipodi-0.dtd"
   xmlns:inkscape="http://www.inkscape.org/namespaces/inkscape"
   width="1000"
   height="200"
   viewBox="0 0 264.58326 52.916666"
   version="1.1"
   id="svg8"
   inkscape:version="0.92.4 (5da689c313, 2019-01-14)"
   sodipodi:docname="logo.svg">
  <defs
     id="defs2" />
  <sodipodi:namedview
     id="base"
     pagecolor="#ffffff"
     bordercolor="#666666"
     borderopacity="1.0"
     inkscape:pageopacity="0.0"
     inkscape:pageshadow="2"
     inkscape:zoom="0.7"
     inkscape:cx="480.46233"
     inkscape:cy="197.47866"
     inkscape:document-units="mm"
     inkscape:current-layer="layer1"
     showgrid="false"
     units="px"
     inkscape:window-width="699"
     inkscape:window-height="388"
     inkscape:window-x="941"
     inkscape:window-y="381"
     inkscape:window-maximized="0"
     showborder="true"
     inkscape:object-nodes="false" />
  <metadata
     id="metadata5">
    <rdf:RDF>
      <cc:Work
         rdf:about="">
        <dc:format>image/svg+xml</dc:format>
        <dc:type
           rdf:resource="http://purl.org/dc/dcmitype/StillImage" />
        <dc:title></dc:title>
      </cc:Work>
    </rdf:RDF>
  </metadata>
  <g
     inkscape:label="Layer 1"
     inkscape:groupmode="layer"
     id="layer1"
     transform="translate(0,-244.08334)">
    <path
       style="fill:#ffffff;stroke:none;stroke-width:0.24526864px;stroke-linecap:butt;stroke-linejoin:miter;stroke-opacity:1;fill-opacity:1"
       d="m 12.697038,250.73866 6.832485,0.0876 0.613171,15.50448 6.306909,-10.07353 -0.788364,19.70909 -4.554989,-3.41625 0.525575,9.54796 4.292202,-3.50384 -0.262788,11.65027 -4.992969,-6.04412 0.700768,7.00767 -3.416242,-0.26279 z"
       id="path12"
       inkscape:connector-curvature="0" />
    <path
       style="fill:#ffffff;fill-opacity:1;stroke:none;stroke-width:0.92699957px;stroke-linecap:butt;stroke-linejoin:miter;stroke-opacity:1"
       d="M 110.89258 27.173828 L 112.87891 178.14258 L 131.41797 177.81055 L 130.75586 106.96094 L 145.98633 106.96094 L 171.47852 175.16211 L 192.33594 174.83008 L 162.53906 101.99609 L 189.02539 60.611328 L 110.89258 27.173828 z M 130.01172 61.566406 L 163.61523 62.228516 L 130.50781 91.197266 L 130.01172 61.566406 z "
       transform="matrix(0.26458333,0,0,0.26458333,0,244.08334)"
       id="path14" />
    <path
       style="fill:#ffffff;fill-opacity:1;stroke:none;stroke-width:0.24526864px;stroke-linecap:butt;stroke-linejoin:miter;stroke-opacity:1"
       d="m 55.817021,251.59045 1.666731,33.06989 8.34975,-0.52799 -0.643055,-32.96608 5.845492,-0.1614 2.014707,40.03135 -4.591559,0.36419 1.613303,-3.34245 -18.284118,0.76974 -0.461414,-37.56003 z"
       id="path20"
       inkscape:connector-curvature="0"
       sodipodi:nodetypes="ccccccccccc" />
    <path
       style="fill:#ffffff;fill-opacity:1;stroke:none;stroke-width:0.24526864px;stroke-linecap:butt;stroke-linejoin:miter;stroke-opacity:1"
       d="m 100.00454,258.80966 -10.871531,-1.89053 -5.382521,10.99149 16.542502,7.32563 -11.124687,15.94247 -12.351029,-7.18287 2.890665,-2.54028 6.224131,2.06574 c 6.317127,-0.99111 5.519965,-3.31941 6.108944,-7.0863 l -16.53768,-7.41806 10.661048,-17.91573 16.030058,5.08056 z"
       id="path23"
       inkscape:connector-curvature="0"
       sodipodi:nodetypes="ccccccccccccc" />
    <path
       style="fill:#ffffff;fill-opacity:1;stroke:none;stroke-width:0.24526864px;stroke-linecap:butt;stroke-linejoin:miter;stroke-opacity:1"
       d="m 105.54874,252.49862 -0.0876,38.62982 3.94182,0.0876 1.82988,-18.04958 8.55747,0.0876 2.75204,17.6992 3.24106,-0.52557 0.0876,-38.8926 -4.81778,0.0876 -0.85734,15.4493 -8.80163,0.45177 -2.07887,-15.63829 z"
       id="path25"
       inkscape:connector-curvature="0"
       sodipodi:nodetypes="ccccccccccccc" />
    <path
       style="fill:#ffffff;fill-opacity:1;stroke:none;stroke-width:0.24526864px;stroke-linecap:butt;stroke-linejoin:miter;stroke-opacity:1"
       d="m 166.38665,259.94359 -10.49356,-3.02447 c -4.05689,3.77929 -5.00409,6.45899 -5.7605,11.55846 l 17.10947,6.75867 -11.1247,15.94247 -12.35102,-7.18287 1.75674,-3.48523 8.49199,4.71158 5.54197,-8.03123 -17.10464,-8.17402 10.66105,-17.91573 16.03006,5.08056 z"
       id="path23-3"
       inkscape:connector-curvature="0"
       sodipodi:nodetypes="ccccccccccccc" />
    <path
       style="fill:#ffffff;fill-opacity:1;stroke:none;stroke-width:0.24526864px;stroke-linecap:butt;stroke-linejoin:miter;stroke-opacity:1"
       d="m 170.04096,252.49862 -0.0876,38.62982 3.9418,0.0876 2.01888,-17.67161 8.17949,-0.10138 2.94103,17.5102 3.24105,-0.52557 0.0876,-38.89259 -4.81776,0.0876 -1.61329,16.39424 -8.23468,-0.30419 -1.88988,-15.82727 z"
       id="path25-4"
       inkscape:connector-curvature="0"
       sodipodi:nodetypes="ccccccccccccc" />
    <path
       style="fill:#ffffff;fill-opacity:1;stroke:none;stroke-width:0.74773294px;stroke-linecap:butt;stroke-linejoin:miter;stroke-opacity:1"
       d="M 778.80469 30.78125 L 732.34375 58.236328 C 732.34375 58.236328 728.44336 122.83506 728.44336 124.3457 C 728.44336 125.85634 745.4375 168.53125 745.4375 168.53125 L 819.83789 167.77734 C 826.13738 153.6164 833.42306 140.44213 846.0957 132.6543 L 843.96289 56.09375 L 778.80469 30.78125 z M 780.03711 60.8125 L 828.67578 67.857422 L 823.60156 125.5293 L 810.02148 149.18359 L 758.20703 149.70898 C 758.20703 149.70898 746.37305 119.98949 746.37305 118.9375 C 746.37305 117.88543 749.79102 77.119141 749.79102 77.119141 L 780.03711 60.8125 z "
       transform="matrix(0.26458333,0,0,0.26458333,0,244.08334)"
       id="path45" />
    <path
       style="fill:#ffffff;fill-opacity:1;stroke:none;stroke-width:0.92699957px;stroke-linecap:butt;stroke-linejoin:miter;stroke-opacity:1"
       d="m 920.11328,28.777344 -60.86523,8.427734 5.61718,132.970702 33.36357,-0.9375 c -18.18323,-27.0607 -9.65243,-51.15346 -6.55469,-75.849608 l 32.18527,0.9375 33.71093,-29.029297 z m -3.97266,18.974609 18.01954,20.789063 -44.94727,4.683593 -0.9375,-24.347656 z"
       transform="matrix(0.26458333,0,0,0.26458333,0,244.08334)"
       id="path62"
       inkscape:connector-curvature="0"
       sodipodi:nodetypes="ccccccccccccc" />
  </g>
</svg>
